<svg width="44" height="544" xmlns="http://www.w3.org/2000/svg">
  <path stroke="#000" d="M0 0h544v544H0z"/>
  <g stroke="null">
    <path fill="#FFF" class="st0" d="M160.929 321.22v-36.59h-8.278v43.456h23.683l3.416-6.865zm32.452-36.59h8.245v43.456h-8.245zm102.581 43.456V284.63h-8.278v17.54h-15.996v-17.54h-8.245v43.456h8.245v-19.084h15.996v19.084zm44.211-43.456h-28.675l-3.482 6.897h11.957v36.559h8.244v-36.559h8.475zm44.705 43.456V284.63h-7.785v28.61l-17.836-28.61h-6.898v43.456h7.818V299.87l17.77 28.216zm16.653-43.456h8.245v43.456h-8.245zm57.318 43.456V284.63h-7.818v28.61l-17.836-28.61h-6.865v43.456h7.785V299.87l17.77 28.216zm27.197.197c.558.131 1.116.23 1.675.328l.131.033c.887.132 1.675.164 2.43.164.625 0 1.282-.032 2.005-.098h.131c.033 0 .066 0 .098-.033.033 0 .099-.033.165-.033 4.565-.361 8.408-2.102 11.397-5.091 3.022-3.022 4.172-6.767 4.172-13.369v-6.306h-12.679l-3.711 6.898h8.145v1.839c0 2.595-.69 4.631-2.036 6.01-1.708 1.775-3.745 2.267-5.321 2.497a12.37 12.37 0 0 1-1.872.164c-5.453 0-10.971-4.598-10.971-14.846 0-7.424 3.284-14.913 10.642-14.913.526 0 1.051.033 1.61.099 2.989.493 6.503 2.463 7.62 5.814l6.996-4.106c-.82-1.61-4.664-8.146-14.19-9.131h-.164a22.751 22.751 0 0 0-2.036-.099 18.4 18.4 0 0 0-4.237.493l-.197.033-.099.032c-.263.066-.526.132-.821.23-8.54 2.431-13.73 10.708-13.533 21.613 0 11.037 5.321 19.314 13.861 21.614v.098h.033l.033-.066c.263.033.493.099.723.132zm-257.42 0c.558.131 1.117.23 1.675.328l.131.033c.887.132 1.676.164 2.431.164.624 0 1.281-.032 2.004-.098h.131c.033 0 .066 0 .099-.033.033 0 .098-.033.164-.033 4.566-.361 8.409-2.102 11.398-5.091 3.022-3.022 4.171-6.767 4.171-13.369v-6.306h-12.679l-3.711 6.898h8.146v1.839c0 2.595-.69 4.631-2.037 6.01-1.708 1.775-3.744 2.267-5.32 2.497a12.37 12.37 0 0 1-1.873.164c-5.453 0-10.971-4.598-10.971-14.846 0-7.424 3.285-14.913 10.642-14.913.526 0 1.051.033 1.61.099 2.989.493 6.504 2.463 7.62 5.814l6.997-4.106c-.822-1.61-4.665-8.146-14.19-9.131h-.164a22.751 22.751 0 0 0-2.037-.099c-1.412 0-2.858.164-4.237.493l-.197.033-.099.032c-.262.066-.525.132-.82.23-8.541 2.431-13.73 10.708-13.534 21.613 0 11.037 5.321 19.314 13.862 21.614v.098h.032l.033-.066c.23.033.46.099.723.132z"/>
 
    <path fill="#FFFAE6" class="st2" d="m46.195 362.443 69.734-93.875-80.179 20.857 48.055-.033z"/>
  </g>
</svg>
